<svg width="1092" height="879" viewBox="0 0 1092 879" fill="none" xmlns="http://www.w3.org/2000/svg">
<g filter="url(#filter0_d_2_3)">
<g filter="url(#filter1_d_2_3)">
<path d="M179.197 666C167.962 666 158.304 664.177 150.223 660.531C142.142 656.967 135.408 652.243 130.02 646.36C124.699 640.559 120.461 634.343 117.307 627.714L135.835 611.305C137.937 614.786 140.598 618.763 143.817 623.238C147.037 627.796 151.439 631.733 157.023 635.048C162.674 638.445 170.065 640.144 179.197 640.144C191.418 640.144 201.503 636.415 209.452 628.957C217.402 621.498 221.377 609.813 221.377 593.902V555.118H219.406C217.698 558.599 215.267 562.908 212.113 568.046C209.025 573.101 204.558 577.618 198.71 581.596C192.929 585.491 185.11 587.438 175.255 587.438C163.035 587.438 152.063 583.792 142.339 576.499C132.681 569.206 125.027 558.599 119.377 544.677C113.792 530.754 111 513.848 111 493.959C111 474.402 113.727 457.372 119.18 442.869C124.633 428.284 132.221 417.013 141.945 409.058C151.669 401.019 162.903 397 175.649 397C185.505 397 193.323 399.072 199.105 403.215C204.952 407.276 209.42 411.917 212.507 417.138C215.661 422.276 218.092 426.502 219.8 429.817H222.165V399.486H244.635V595.891C244.635 612.299 241.679 625.642 235.765 635.918C229.918 646.277 222.034 653.859 212.113 658.666C202.258 663.555 191.286 666 179.197 666ZM178.409 561.085C187.738 561.085 195.622 558.392 202.061 553.005C208.5 547.618 213.394 539.87 216.745 529.76C220.096 519.649 221.771 507.55 221.771 493.462C221.771 479.705 220.129 467.565 216.844 457.04C213.559 446.516 208.697 438.27 202.258 432.303C195.82 426.336 187.87 423.353 178.409 423.353C168.554 423.353 160.341 426.502 153.771 432.8C147.267 439.099 142.372 447.551 139.087 458.159C135.868 468.766 134.258 480.534 134.258 493.462C134.258 506.721 135.901 518.448 139.186 528.641C142.536 538.751 147.464 546.707 153.968 552.508C160.538 558.226 168.685 561.085 178.409 561.085Z" fill="black"/>
<path d="M348.705 594.399C335.039 594.399 323.049 590.297 312.734 582.093C302.484 573.889 294.469 562.411 288.687 547.66C282.971 532.909 280.113 515.672 280.113 495.948C280.113 476.059 282.971 458.698 288.687 443.864C294.469 429.03 302.484 417.511 312.734 409.306C323.049 401.102 335.039 397 348.705 397C362.371 397 374.328 401.102 384.577 409.306C394.892 417.511 402.908 429.03 408.624 443.864C414.406 458.698 417.296 476.059 417.296 495.948C417.296 515.672 414.406 532.909 408.624 547.66C402.908 562.411 394.892 573.889 384.577 582.093C374.328 590.297 362.371 594.399 348.705 594.399ZM348.705 568.046C359.086 568.046 367.627 564.69 374.328 557.977C381.03 551.265 385.99 542.439 389.209 531.5C392.429 520.561 394.038 508.71 394.038 495.948C394.038 483.186 392.429 471.294 389.209 460.272C385.99 449.25 381.03 440.342 374.328 433.546C367.627 426.751 359.086 423.353 348.705 423.353C338.324 423.353 329.783 426.751 323.082 433.546C316.38 440.342 311.42 449.25 308.2 460.272C304.981 471.294 303.371 483.186 303.371 495.948C303.371 508.71 304.981 520.561 308.2 531.5C311.42 542.439 316.38 551.265 323.082 557.977C329.783 564.69 338.324 568.046 348.705 568.046Z" fill="black"/>
<path d="M513.901 666C502.666 666 493.008 664.177 484.927 660.531C476.846 656.967 470.111 652.243 464.724 646.36C459.402 640.559 455.165 634.343 452.011 627.714L470.538 611.305C472.641 614.786 475.302 618.763 478.521 623.238C481.74 627.796 486.142 631.733 491.727 635.048C497.377 638.445 504.769 640.144 513.901 640.144C526.121 640.144 536.206 636.415 544.156 628.957C552.106 621.498 556.081 609.813 556.081 593.902V555.118H554.11C552.401 558.599 549.971 562.908 546.817 568.046C543.729 573.101 539.261 577.618 533.414 581.596C527.632 585.491 519.814 587.438 509.959 587.438C497.739 587.438 486.767 583.792 477.043 576.499C467.385 569.206 459.731 558.599 454.08 544.677C448.496 530.754 445.704 513.848 445.704 493.959C445.704 474.402 448.43 457.372 453.883 442.869C459.337 428.284 466.925 417.013 476.649 409.058C486.372 401.019 497.607 397 510.353 397C520.208 397 528.027 399.072 533.808 403.215C539.656 407.276 544.123 411.917 547.211 417.138C550.365 422.276 552.796 426.502 554.504 429.817H556.869V399.486H579.339V595.891C579.339 612.299 576.382 625.642 570.469 635.918C564.622 646.277 556.738 653.859 546.817 658.666C536.962 663.555 525.99 666 513.901 666ZM513.113 561.085C522.442 561.085 530.326 558.392 536.765 553.005C543.203 547.618 548.098 539.87 551.449 529.76C554.8 519.649 556.475 507.55 556.475 493.462C556.475 479.705 554.832 467.565 551.547 457.04C548.262 446.516 543.401 438.27 536.962 432.303C530.523 426.336 522.573 423.353 513.113 423.353C503.257 423.353 495.045 426.502 488.475 432.8C481.97 439.099 477.076 447.551 473.791 458.159C470.571 468.766 468.962 480.534 468.962 493.462C468.962 506.721 470.604 518.448 473.889 528.641C477.24 538.751 482.168 546.707 488.672 552.508C495.242 558.226 503.389 561.085 513.113 561.085Z" fill="black"/>
<path d="M683.409 594.399C669.743 594.399 657.752 590.297 647.437 582.093C637.188 573.889 629.173 562.411 623.391 547.66C617.675 532.909 614.817 515.672 614.817 495.948C614.817 476.059 617.675 458.698 623.391 443.864C629.173 429.03 637.188 417.511 647.437 409.306C657.752 401.102 669.743 397 683.409 397C697.074 397 709.032 401.102 719.281 409.306C729.596 417.511 737.612 429.03 743.328 443.864C749.109 458.698 752 476.059 752 495.948C752 515.672 749.109 532.909 743.328 547.66C737.612 562.411 729.596 573.889 719.281 582.093C709.032 590.297 697.074 594.399 683.409 594.399ZM683.409 568.046C693.789 568.046 702.33 564.69 709.032 557.977C715.733 551.265 720.694 542.439 723.913 531.5C727.132 520.561 728.742 508.71 728.742 495.948C728.742 483.186 727.132 471.294 723.913 460.272C720.694 449.25 715.733 440.342 709.032 433.546C702.33 426.751 693.789 423.353 683.409 423.353C673.028 423.353 664.487 426.751 657.785 433.546C651.084 440.342 646.123 449.25 642.904 460.272C639.685 471.294 638.075 483.186 638.075 495.948C638.075 508.71 639.685 520.561 642.904 531.5C646.123 542.439 651.084 551.265 657.785 557.977C664.487 564.69 673.028 568.046 683.409 568.046Z" fill="black"/>
</g>
<g filter="url(#filter2_d_2_3)">
<mask id="path-2-inside-1_2_3" fill="white">
<path d="M212 728.015V723.049H242.661V728.015H229.806V769.278H224.855V728.015H212Z"/>
<path d="M254.374 748.421V769.278H249.663V723.049H254.374V740.024H254.773C255.492 738.233 256.57 736.811 258.007 735.758C259.457 734.689 261.387 734.155 263.796 734.155C265.885 734.155 267.715 734.629 269.285 735.577C270.855 736.51 272.073 737.947 272.938 739.888C273.816 741.815 274.256 744.267 274.256 747.247V769.278H269.545V747.608C269.545 744.854 268.913 742.725 267.648 741.22C266.397 739.7 264.661 738.94 262.438 738.94C260.895 738.94 259.511 739.309 258.286 740.046C257.075 740.784 256.117 741.86 255.412 743.274C254.72 744.689 254.374 746.404 254.374 748.421Z"/>
<path d="M295.729 770C292.775 770 290.227 769.263 288.084 767.788C285.955 766.298 284.311 764.221 283.154 761.558C282.009 758.879 281.437 755.764 281.437 752.213C281.437 748.662 282.009 745.532 283.154 742.823C284.311 740.099 285.922 737.977 287.984 736.457C290.06 734.922 292.482 734.155 295.25 734.155C296.847 734.155 298.424 734.456 299.981 735.058C301.538 735.66 302.956 736.638 304.233 737.992C305.511 739.332 306.529 741.107 307.287 743.319C308.046 745.532 308.425 748.255 308.425 751.491V753.748H284.79V749.143H303.634C303.634 747.187 303.288 745.441 302.596 743.906C301.918 742.371 300.946 741.16 299.682 740.272C298.431 739.384 296.954 738.94 295.25 738.94C293.374 738.94 291.75 739.467 290.38 740.52C289.022 741.559 287.978 742.913 287.246 744.583C286.514 746.254 286.148 748.045 286.148 749.956V753.026C286.148 755.644 286.547 757.864 287.346 759.684C288.157 761.49 289.282 762.867 290.719 763.815C292.156 764.748 293.826 765.215 295.729 765.215C296.967 765.215 298.085 765.019 299.083 764.628C300.094 764.221 300.966 763.62 301.698 762.822C302.43 762.009 302.996 761.001 303.395 759.797L307.946 761.242C307.467 762.988 306.662 764.522 305.531 765.847C304.399 767.156 303.002 768.179 301.339 768.917C299.675 769.639 297.805 770 295.729 770Z"/>
<path d="M328.047 770C325.279 770 322.851 769.255 320.761 767.765C318.685 766.276 317.062 764.191 315.891 761.513C314.733 758.834 314.154 755.704 314.154 752.123C314.154 748.511 314.733 745.358 315.891 742.665C317.062 739.971 318.685 737.879 320.761 736.39C322.851 734.9 325.279 734.155 328.047 734.155C330.816 734.155 333.238 734.9 335.314 736.39C337.403 737.879 339.026 739.971 340.184 742.665C341.355 745.358 341.941 748.511 341.941 752.123C341.941 755.704 341.355 758.834 340.184 761.513C339.026 764.191 337.403 766.276 335.314 767.765C333.238 769.255 330.816 770 328.047 770ZM328.047 765.215C330.15 765.215 331.88 764.605 333.238 763.386C334.595 762.167 335.6 760.565 336.252 758.578C336.904 756.592 337.23 754.44 337.23 752.123C337.23 749.805 336.904 747.646 336.252 745.644C335.6 743.643 334.595 742.025 333.238 740.791C331.88 739.557 330.15 738.94 328.047 738.94C325.945 738.94 324.215 739.557 322.857 740.791C321.5 742.025 320.495 743.643 319.843 745.644C319.191 747.646 318.865 749.805 318.865 752.123C318.865 754.44 319.191 756.592 319.843 758.578C320.495 760.565 321.5 762.167 322.857 763.386C324.215 764.605 325.945 765.215 328.047 765.215Z"/>
<path d="M365.581 769.278V723.049H370.291V740.114H370.691C371.037 739.512 371.516 738.745 372.128 737.812C372.753 736.864 373.645 736.021 374.803 735.284C375.974 734.531 377.558 734.155 379.554 734.155C382.135 734.155 384.411 734.885 386.381 736.345C388.35 737.804 389.887 739.873 390.992 742.552C392.096 745.231 392.649 748.391 392.649 752.032C392.649 755.704 392.096 758.887 390.992 761.58C389.887 764.259 388.357 766.336 386.401 767.81C384.444 769.27 382.189 770 379.634 770C377.664 770 376.087 769.631 374.903 768.894C373.718 768.142 372.807 767.291 372.168 766.343C371.529 765.38 371.037 764.583 370.691 763.951H370.132V769.278H365.581ZM370.212 751.942C370.212 754.56 370.551 756.87 371.23 758.872C371.908 760.858 372.9 762.416 374.204 763.544C375.508 764.658 377.105 765.215 378.995 765.215C380.964 765.215 382.608 764.628 383.925 763.454C385.256 762.265 386.254 760.67 386.92 758.669C387.598 756.652 387.938 754.41 387.938 751.942C387.938 749.504 387.605 747.307 386.94 745.351C386.287 743.38 385.296 741.822 383.965 740.678C382.648 739.52 380.991 738.94 378.995 738.94C377.078 738.94 375.468 739.49 374.164 740.588C372.86 741.672 371.875 743.192 371.21 745.148C370.544 747.089 370.212 749.354 370.212 751.942Z"/>
<path d="M427.482 733.072H431.634C431.634 735.359 431.368 737.278 430.835 738.828C430.303 740.362 429.372 741.521 428.041 742.304C426.71 743.071 424.847 743.455 422.451 743.455V739.753C424.102 739.753 425.273 739.527 425.965 739.076C426.67 738.609 427.096 737.887 427.242 736.909C427.402 735.916 427.482 734.637 427.482 733.072ZM419.178 755.102V734.606H423.889V769.278H419.178V763.409H418.858C418.14 765.17 417.022 766.667 415.505 767.901C413.988 769.12 412.071 769.729 409.756 769.729C407.839 769.729 406.136 769.255 404.646 768.307C403.155 767.344 401.984 765.899 401.132 763.973C400.281 762.032 399.855 759.587 399.855 756.637V734.606H404.566V756.276C404.566 758.804 405.191 760.821 406.442 762.325C407.706 763.83 409.317 764.583 411.273 764.583C412.444 764.583 413.635 764.244 414.846 763.567C416.07 762.89 417.095 761.851 417.92 760.452C418.759 759.052 419.178 757.269 419.178 755.102Z"/>
<path d="M459.735 731.988H464.127C464.127 735.419 463.461 738.143 462.13 740.159C460.813 742.176 458.497 743.184 455.184 743.184V739.392C456.514 739.392 457.499 739.083 458.138 738.466C458.79 737.849 459.216 736.984 459.416 735.871C459.629 734.757 459.735 733.463 459.735 731.988ZM447.279 770C444.511 770 442.082 769.255 439.993 767.765C437.917 766.276 436.293 764.191 435.122 761.513C433.964 758.834 433.385 755.704 433.385 752.123C433.385 748.511 433.964 745.358 435.122 742.665C436.293 739.971 437.917 737.879 439.993 736.39C442.082 734.9 444.511 734.155 447.279 734.155C450.047 734.155 452.469 734.9 454.545 736.39C456.634 737.879 458.258 739.971 459.416 742.665C460.587 745.358 461.172 748.511 461.172 752.123C461.172 755.704 460.587 758.834 459.416 761.513C458.258 764.191 456.634 766.276 454.545 767.765C452.469 769.255 450.047 770 447.279 770ZM447.279 765.215C449.381 765.215 451.112 764.605 452.469 763.386C453.826 762.167 454.831 760.565 455.483 758.578C456.135 756.592 456.461 754.44 456.461 752.123C456.461 749.805 456.135 747.646 455.483 745.644C454.831 743.643 453.826 742.025 452.469 740.791C451.112 739.557 449.381 738.94 447.279 738.94C445.176 738.94 443.446 739.557 442.089 740.791C440.731 742.025 439.727 743.643 439.075 745.644C438.423 747.646 438.096 749.805 438.096 752.123C438.096 754.44 438.423 756.592 439.075 758.578C439.727 760.565 440.731 762.167 442.089 763.386C443.446 764.605 445.176 765.215 447.279 765.215ZM445.123 729.911L449.994 719.438H455.503L449.275 729.911H445.123Z"/>
<path d="M480.874 770C478 770 475.525 769.233 473.449 767.698C471.373 766.163 469.776 764.048 468.658 761.355C467.54 758.661 466.981 755.584 466.981 752.123C466.981 748.601 467.553 745.494 468.698 742.8C469.856 740.092 471.466 737.977 473.529 736.457C475.605 734.922 478.027 734.155 480.795 734.155C482.95 734.155 484.893 734.606 486.623 735.509C488.353 736.412 489.771 737.676 490.875 739.302C491.98 740.927 492.665 742.823 492.931 744.99H488.22C487.861 743.41 487.063 742.01 485.825 740.791C484.601 739.557 482.95 738.94 480.874 738.94C479.038 738.94 477.428 739.482 476.044 740.566C474.673 741.634 473.602 743.146 472.83 745.103C472.071 747.044 471.692 749.324 471.692 751.942C471.692 754.621 472.065 756.953 472.81 758.94C473.568 760.926 474.633 762.468 476.004 763.567C477.388 764.665 479.011 765.215 480.874 765.215C482.099 765.215 483.21 764.974 484.208 764.492C485.206 764.011 486.051 763.319 486.743 762.416C487.435 761.513 487.928 760.429 488.22 759.165H492.931C492.665 761.212 492.006 763.055 490.955 764.695C489.917 766.321 488.54 767.615 486.823 768.578C485.12 769.526 483.137 770 480.874 770Z"/>
<path d="M528.962 734.606V739.121H513.073V734.606H528.962ZM517.704 726.3H522.415V759.346C522.415 760.851 522.608 761.979 522.994 762.732C523.393 763.469 523.899 763.966 524.511 764.221C525.136 764.462 525.795 764.583 526.487 764.583C527.006 764.583 527.432 764.553 527.764 764.492C528.097 764.417 528.363 764.357 528.563 764.312L529.521 769.097C529.202 769.233 528.756 769.368 528.184 769.503C527.611 769.654 526.886 769.729 526.008 769.729C524.677 769.729 523.373 769.406 522.095 768.759C520.831 768.111 519.78 767.126 518.941 765.802C518.116 764.477 517.704 762.807 517.704 760.79V726.3Z"/>
<path d="M536.049 769.278V734.606H540.6V739.843H540.919C541.478 738.128 542.49 736.736 543.953 735.667C545.417 734.599 547.068 734.065 548.904 734.065C549.25 734.065 549.682 734.072 550.202 734.087C550.721 734.102 551.113 734.125 551.379 734.155V739.572C551.22 739.527 550.854 739.46 550.281 739.369C549.722 739.264 549.13 739.211 548.505 739.211C547.014 739.211 545.683 739.565 544.512 740.272C543.355 740.964 542.436 741.927 541.758 743.161C541.092 744.38 540.76 745.772 540.76 747.337V769.278H536.049Z"/>
<path d="M568.886 770C565.931 770 563.383 769.263 561.24 767.788C559.111 766.298 557.468 764.221 556.31 761.558C555.165 758.879 554.593 755.764 554.593 752.213C554.593 748.662 555.165 745.532 556.31 742.823C557.468 740.099 559.078 737.977 561.141 736.457C563.217 734.922 565.639 734.155 568.407 734.155C570.004 734.155 571.581 734.456 573.138 735.058C574.695 735.66 576.112 736.638 577.389 737.992C578.667 739.332 579.685 741.107 580.444 743.319C581.202 745.532 581.581 748.255 581.581 751.491V753.748H557.947V749.143H576.79C576.79 747.187 576.445 745.441 575.753 743.906C575.074 742.371 574.102 741.16 572.838 740.272C571.587 739.384 570.11 738.94 568.407 738.94C566.53 738.94 564.907 739.467 563.536 740.52C562.179 741.559 561.134 742.913 560.402 744.583C559.67 746.254 559.304 748.045 559.304 749.956V753.026C559.304 755.644 559.703 757.864 560.502 759.684C561.314 761.49 562.438 762.867 563.875 763.815C565.313 764.748 566.983 765.215 568.886 765.215C570.123 765.215 571.241 765.019 572.239 764.628C573.251 764.221 574.122 763.62 574.854 762.822C575.586 762.009 576.152 761.001 576.551 759.797L581.102 761.242C580.623 762.988 579.818 764.522 578.687 765.847C577.556 767.156 576.158 768.179 574.495 768.917C572.831 769.639 570.962 770 568.886 770ZM570.243 729.911H566.331V725.036C567.728 724.945 568.713 724.727 569.285 724.381C569.87 724.035 570.163 723.501 570.163 722.779C570.163 721.966 569.744 721.372 568.906 720.995C568.067 720.619 567.049 720.431 565.851 720.431L566.011 717C568.766 717 570.849 717.542 572.259 718.625C573.683 719.709 574.395 721.153 574.395 722.959C574.395 724.494 573.963 725.615 573.098 726.322C572.233 727.03 571.281 727.474 570.243 727.654V729.911Z"/>
<path d="M609.268 748.421V769.278H604.557V734.606H609.109V740.024H609.508C610.226 738.263 611.318 736.849 612.782 735.78C614.245 734.697 616.135 734.155 618.451 734.155C620.527 734.155 622.343 734.637 623.9 735.6C625.457 736.548 626.668 737.992 627.533 739.934C628.398 741.86 628.831 744.298 628.831 747.247V769.278H624.12V747.608C624.12 744.884 623.494 742.763 622.243 741.243C620.992 739.708 619.276 738.94 617.093 738.94C615.589 738.94 614.245 739.309 613.061 740.046C611.89 740.784 610.965 741.86 610.286 743.274C609.608 744.689 609.268 746.404 609.268 748.421Z"/>
<path d="M642.15 748.421V769.278H637.439V723.049H642.15V740.024H642.549C643.268 738.233 644.346 736.811 645.783 735.758C647.234 734.689 649.163 734.155 651.572 734.155C653.661 734.155 655.491 734.629 657.062 735.577C658.632 736.51 659.85 737.947 660.715 739.888C661.593 741.815 662.032 744.267 662.032 747.247V769.278H657.321V747.608C657.321 744.854 656.689 742.725 655.425 741.22C654.174 739.7 652.437 738.94 650.215 738.94C648.671 738.94 647.287 739.309 646.063 740.046C644.852 740.784 643.894 741.86 643.188 743.274C642.496 744.689 642.15 746.404 642.15 748.421Z"/>
<path d="M683.107 770C680.339 770 677.91 769.255 675.821 767.765C673.745 766.276 672.121 764.191 670.95 761.513C669.792 758.834 669.213 755.704 669.213 752.123C669.213 748.511 669.792 745.358 670.95 742.665C672.121 739.971 673.745 737.879 675.821 736.39C677.91 734.9 680.339 734.155 683.107 734.155C685.875 734.155 688.297 734.9 690.373 736.39C692.462 737.879 694.086 739.971 695.243 742.665C696.414 745.358 697 748.511 697 752.123C697 755.704 696.414 758.834 695.243 761.513C694.086 764.191 692.462 766.276 690.373 767.765C688.297 769.255 685.875 770 683.107 770ZM683.107 765.215C685.209 765.215 686.939 764.605 688.297 763.386C689.654 762.167 690.659 760.565 691.311 758.578C691.963 756.592 692.289 754.44 692.289 752.123C692.289 749.805 691.963 747.646 691.311 745.644C690.659 743.643 689.654 742.025 688.297 740.791C686.939 739.557 685.209 738.94 683.107 738.94C681.004 738.94 679.274 739.557 677.917 740.791C676.559 742.025 675.554 743.643 674.902 745.644C674.25 747.646 673.924 749.805 673.924 752.123C673.924 754.44 674.25 756.592 674.902 758.578C675.554 760.565 676.559 762.167 677.917 763.386C679.274 764.605 681.004 765.215 683.107 765.215ZM685.183 729.911H681.27V725.036C682.667 724.945 683.652 724.727 684.225 724.381C684.81 724.035 685.103 723.501 685.103 722.779C685.103 721.966 684.684 721.372 683.845 720.995C683.007 720.619 681.989 720.431 680.791 720.431L680.951 717C683.706 717 685.788 717.542 687.199 718.625C688.623 719.709 689.335 721.153 689.335 722.959C689.335 724.494 688.902 725.615 688.037 726.322C687.172 727.03 686.221 727.474 685.183 727.654V729.911Z"/>
</mask>
<path d="M212 728.015V723.049H242.661V728.015H229.806V769.278H224.855V728.015H212Z" fill="black"/>
<path d="M254.374 748.421V769.278H249.663V723.049H254.374V740.024H254.773C255.492 738.233 256.57 736.811 258.007 735.758C259.457 734.689 261.387 734.155 263.796 734.155C265.885 734.155 267.715 734.629 269.285 735.577C270.855 736.51 272.073 737.947 272.938 739.888C273.816 741.815 274.256 744.267 274.256 747.247V769.278H269.545V747.608C269.545 744.854 268.913 742.725 267.648 741.22C266.397 739.7 264.661 738.94 262.438 738.94C260.895 738.94 259.511 739.309 258.286 740.046C257.075 740.784 256.117 741.86 255.412 743.274C254.72 744.689 254.374 746.404 254.374 748.421Z" fill="black"/>
<path d="M295.729 770C292.775 770 290.227 769.263 288.084 767.788C285.955 766.298 284.311 764.221 283.154 761.558C282.009 758.879 281.437 755.764 281.437 752.213C281.437 748.662 282.009 745.532 283.154 742.823C284.311 740.099 285.922 737.977 287.984 736.457C290.06 734.922 292.482 734.155 295.25 734.155C296.847 734.155 298.424 734.456 299.981 735.058C301.538 735.66 302.956 736.638 304.233 737.992C305.511 739.332 306.529 741.107 307.287 743.319C308.046 745.532 308.425 748.255 308.425 751.491V753.748H284.79V749.143H303.634C303.634 747.187 303.288 745.441 302.596 743.906C301.918 742.371 300.946 741.16 299.682 740.272C298.431 739.384 296.954 738.94 295.25 738.94C293.374 738.94 291.75 739.467 290.38 740.52C289.022 741.559 287.978 742.913 287.246 744.583C286.514 746.254 286.148 748.045 286.148 749.956V753.026C286.148 755.644 286.547 757.864 287.346 759.684C288.157 761.49 289.282 762.867 290.719 763.815C292.156 764.748 293.826 765.215 295.729 765.215C296.967 765.215 298.085 765.019 299.083 764.628C300.094 764.221 300.966 763.62 301.698 762.822C302.43 762.009 302.996 761.001 303.395 759.797L307.946 761.242C307.467 762.988 306.662 764.522 305.531 765.847C304.399 767.156 303.002 768.179 301.339 768.917C299.675 769.639 297.805 770 295.729 770Z" fill="black"/>
<path d="M328.047 770C325.279 770 322.851 769.255 320.761 767.765C318.685 766.276 317.062 764.191 315.891 761.513C314.733 758.834 314.154 755.704 314.154 752.123C314.154 748.511 314.733 745.358 315.891 742.665C317.062 739.971 318.685 737.879 320.761 736.39C322.851 734.9 325.279 734.155 328.047 734.155C330.816 734.155 333.238 734.9 335.314 736.39C337.403 737.879 339.026 739.971 340.184 742.665C341.355 745.358 341.941 748.511 341.941 752.123C341.941 755.704 341.355 758.834 340.184 761.513C339.026 764.191 337.403 766.276 335.314 767.765C333.238 769.255 330.816 770 328.047 770ZM328.047 765.215C330.15 765.215 331.88 764.605 333.238 763.386C334.595 762.167 335.6 760.565 336.252 758.578C336.904 756.592 337.23 754.44 337.23 752.123C337.23 749.805 336.904 747.646 336.252 745.644C335.6 743.643 334.595 742.025 333.238 740.791C331.88 739.557 330.15 738.94 328.047 738.94C325.945 738.94 324.215 739.557 322.857 740.791C321.5 742.025 320.495 743.643 319.843 745.644C319.191 747.646 318.865 749.805 318.865 752.123C318.865 754.44 319.191 756.592 319.843 758.578C320.495 760.565 321.5 762.167 322.857 763.386C324.215 764.605 325.945 765.215 328.047 765.215Z" fill="black"/>
<path d="M365.581 769.278V723.049H370.291V740.114H370.691C371.037 739.512 371.516 738.745 372.128 737.812C372.753 736.864 373.645 736.021 374.803 735.284C375.974 734.531 377.558 734.155 379.554 734.155C382.135 734.155 384.411 734.885 386.381 736.345C388.35 737.804 389.887 739.873 390.992 742.552C392.096 745.231 392.649 748.391 392.649 752.032C392.649 755.704 392.096 758.887 390.992 761.58C389.887 764.259 388.357 766.336 386.401 767.81C384.444 769.27 382.189 770 379.634 770C377.664 770 376.087 769.631 374.903 768.894C373.718 768.142 372.807 767.291 372.168 766.343C371.529 765.38 371.037 764.583 370.691 763.951H370.132V769.278H365.581ZM370.212 751.942C370.212 754.56 370.551 756.87 371.23 758.872C371.908 760.858 372.9 762.416 374.204 763.544C375.508 764.658 377.105 765.215 378.995 765.215C380.964 765.215 382.608 764.628 383.925 763.454C385.256 762.265 386.254 760.67 386.92 758.669C387.598 756.652 387.938 754.41 387.938 751.942C387.938 749.504 387.605 747.307 386.94 745.351C386.287 743.38 385.296 741.822 383.965 740.678C382.648 739.52 380.991 738.94 378.995 738.94C377.078 738.94 375.468 739.49 374.164 740.588C372.86 741.672 371.875 743.192 371.21 745.148C370.544 747.089 370.212 749.354 370.212 751.942Z" fill="black"/>
<path d="M427.482 733.072H431.634C431.634 735.359 431.368 737.278 430.835 738.828C430.303 740.362 429.372 741.521 428.041 742.304C426.71 743.071 424.847 743.455 422.451 743.455V739.753C424.102 739.753 425.273 739.527 425.965 739.076C426.67 738.609 427.096 737.887 427.242 736.909C427.402 735.916 427.482 734.637 427.482 733.072ZM419.178 755.102V734.606H423.889V769.278H419.178V763.409H418.858C418.14 765.17 417.022 766.667 415.505 767.901C413.988 769.12 412.071 769.729 409.756 769.729C407.839 769.729 406.136 769.255 404.646 768.307C403.155 767.344 401.984 765.899 401.132 763.973C400.281 762.032 399.855 759.587 399.855 756.637V734.606H404.566V756.276C404.566 758.804 405.191 760.821 406.442 762.325C407.706 763.83 409.317 764.583 411.273 764.583C412.444 764.583 413.635 764.244 414.846 763.567C416.07 762.89 417.095 761.851 417.92 760.452C418.759 759.052 419.178 757.269 419.178 755.102Z" fill="black"/>
<path d="M459.735 731.988H464.127C464.127 735.419 463.461 738.143 462.13 740.159C460.813 742.176 458.497 743.184 455.184 743.184V739.392C456.514 739.392 457.499 739.083 458.138 738.466C458.79 737.849 459.216 736.984 459.416 735.871C459.629 734.757 459.735 733.463 459.735 731.988ZM447.279 770C444.511 770 442.082 769.255 439.993 767.765C437.917 766.276 436.293 764.191 435.122 761.513C433.964 758.834 433.385 755.704 433.385 752.123C433.385 748.511 433.964 745.358 435.122 742.665C436.293 739.971 437.917 737.879 439.993 736.39C442.082 734.9 444.511 734.155 447.279 734.155C450.047 734.155 452.469 734.9 454.545 736.39C456.634 737.879 458.258 739.971 459.416 742.665C460.587 745.358 461.172 748.511 461.172 752.123C461.172 755.704 460.587 758.834 459.416 761.513C458.258 764.191 456.634 766.276 454.545 767.765C452.469 769.255 450.047 770 447.279 770ZM447.279 765.215C449.381 765.215 451.112 764.605 452.469 763.386C453.826 762.167 454.831 760.565 455.483 758.578C456.135 756.592 456.461 754.44 456.461 752.123C456.461 749.805 456.135 747.646 455.483 745.644C454.831 743.643 453.826 742.025 452.469 740.791C451.112 739.557 449.381 738.94 447.279 738.94C445.176 738.94 443.446 739.557 442.089 740.791C440.731 742.025 439.727 743.643 439.075 745.644C438.423 747.646 438.096 749.805 438.096 752.123C438.096 754.44 438.423 756.592 439.075 758.578C439.727 760.565 440.731 762.167 442.089 763.386C443.446 764.605 445.176 765.215 447.279 765.215ZM445.123 729.911L449.994 719.438H455.503L449.275 729.911H445.123Z" fill="black"/>
<path d="M480.874 770C478 770 475.525 769.233 473.449 767.698C471.373 766.163 469.776 764.048 468.658 761.355C467.54 758.661 466.981 755.584 466.981 752.123C466.981 748.601 467.553 745.494 468.698 742.8C469.856 740.092 471.466 737.977 473.529 736.457C475.605 734.922 478.027 734.155 480.795 734.155C482.95 734.155 484.893 734.606 486.623 735.509C488.353 736.412 489.771 737.676 490.875 739.302C491.98 740.927 492.665 742.823 492.931 744.99H488.22C487.861 743.41 487.063 742.01 485.825 740.791C484.601 739.557 482.95 738.94 480.874 738.94C479.038 738.94 477.428 739.482 476.044 740.566C474.673 741.634 473.602 743.146 472.83 745.103C472.071 747.044 471.692 749.324 471.692 751.942C471.692 754.621 472.065 756.953 472.81 758.94C473.568 760.926 474.633 762.468 476.004 763.567C477.388 764.665 479.011 765.215 480.874 765.215C482.099 765.215 483.21 764.974 484.208 764.492C485.206 764.011 486.051 763.319 486.743 762.416C487.435 761.513 487.928 760.429 488.22 759.165H492.931C492.665 761.212 492.006 763.055 490.955 764.695C489.917 766.321 488.54 767.615 486.823 768.578C485.12 769.526 483.137 770 480.874 770Z" fill="black"/>
<path d="M528.962 734.606V739.121H513.073V734.606H528.962ZM517.704 726.3H522.415V759.346C522.415 760.851 522.608 761.979 522.994 762.732C523.393 763.469 523.899 763.966 524.511 764.221C525.136 764.462 525.795 764.583 526.487 764.583C527.006 764.583 527.432 764.553 527.764 764.492C528.097 764.417 528.363 764.357 528.563 764.312L529.521 769.097C529.202 769.233 528.756 769.368 528.184 769.503C527.611 769.654 526.886 769.729 526.008 769.729C524.677 769.729 523.373 769.406 522.095 768.759C520.831 768.111 519.78 767.126 518.941 765.802C518.116 764.477 517.704 762.807 517.704 760.79V726.3Z" fill="black"/>
<path d="M536.049 769.278V734.606H540.6V739.843H540.919C541.478 738.128 542.49 736.736 543.953 735.667C545.417 734.599 547.068 734.065 548.904 734.065C549.25 734.065 549.682 734.072 550.202 734.087C550.721 734.102 551.113 734.125 551.379 734.155V739.572C551.22 739.527 550.854 739.46 550.281 739.369C549.722 739.264 549.13 739.211 548.505 739.211C547.014 739.211 545.683 739.565 544.512 740.272C543.355 740.964 542.436 741.927 541.758 743.161C541.092 744.38 540.76 745.772 540.76 747.337V769.278H536.049Z" fill="black"/>
<path d="M568.886 770C565.931 770 563.383 769.263 561.24 767.788C559.111 766.298 557.468 764.221 556.31 761.558C555.165 758.879 554.593 755.764 554.593 752.213C554.593 748.662 555.165 745.532 556.31 742.823C557.468 740.099 559.078 737.977 561.141 736.457C563.217 734.922 565.639 734.155 568.407 734.155C570.004 734.155 571.581 734.456 573.138 735.058C574.695 735.66 576.112 736.638 577.389 737.992C578.667 739.332 579.685 741.107 580.444 743.319C581.202 745.532 581.581 748.255 581.581 751.491V753.748H557.947V749.143H576.79C576.79 747.187 576.445 745.441 575.753 743.906C575.074 742.371 574.102 741.16 572.838 740.272C571.587 739.384 570.11 738.94 568.407 738.94C566.53 738.94 564.907 739.467 563.536 740.52C562.179 741.559 561.134 742.913 560.402 744.583C559.67 746.254 559.304 748.045 559.304 749.956V753.026C559.304 755.644 559.703 757.864 560.502 759.684C561.314 761.49 562.438 762.867 563.875 763.815C565.313 764.748 566.983 765.215 568.886 765.215C570.123 765.215 571.241 765.019 572.239 764.628C573.251 764.221 574.122 763.62 574.854 762.822C575.586 762.009 576.152 761.001 576.551 759.797L581.102 761.242C580.623 762.988 579.818 764.522 578.687 765.847C577.556 767.156 576.158 768.179 574.495 768.917C572.831 769.639 570.962 770 568.886 770ZM570.243 729.911H566.331V725.036C567.728 724.945 568.713 724.727 569.285 724.381C569.87 724.035 570.163 723.501 570.163 722.779C570.163 721.966 569.744 721.372 568.906 720.995C568.067 720.619 567.049 720.431 565.851 720.431L566.011 717C568.766 717 570.849 717.542 572.259 718.625C573.683 719.709 574.395 721.153 574.395 722.959C574.395 724.494 573.963 725.615 573.098 726.322C572.233 727.03 571.281 727.474 570.243 727.654V729.911Z" fill="black"/>
<path d="M609.268 748.421V769.278H604.557V734.606H609.109V740.024H609.508C610.226 738.263 611.318 736.849 612.782 735.78C614.245 734.697 616.135 734.155 618.451 734.155C620.527 734.155 622.343 734.637 623.9 735.6C625.457 736.548 626.668 737.992 627.533 739.934C628.398 741.86 628.831 744.298 628.831 747.247V769.278H624.12V747.608C624.12 744.884 623.494 742.763 622.243 741.243C620.992 739.708 619.276 738.94 617.093 738.94C615.589 738.94 614.245 739.309 613.061 740.046C611.89 740.784 610.965 741.86 610.286 743.274C609.608 744.689 609.268 746.404 609.268 748.421Z" fill="black"/>
<path d="M642.15 748.421V769.278H637.439V723.049H642.15V740.024H642.549C643.268 738.233 644.346 736.811 645.783 735.758C647.234 734.689 649.163 734.155 651.572 734.155C653.661 734.155 655.491 734.629 657.062 735.577C658.632 736.51 659.85 737.947 660.715 739.888C661.593 741.815 662.032 744.267 662.032 747.247V769.278H657.321V747.608C657.321 744.854 656.689 742.725 655.425 741.22C654.174 739.7 652.437 738.94 650.215 738.94C648.671 738.94 647.287 739.309 646.063 740.046C644.852 740.784 643.894 741.86 643.188 743.274C642.496 744.689 642.15 746.404 642.15 748.421Z" fill="black"/>
<path d="M683.107 770C680.339 770 677.91 769.255 675.821 767.765C673.745 766.276 672.121 764.191 670.95 761.513C669.792 758.834 669.213 755.704 669.213 752.123C669.213 748.511 669.792 745.358 670.95 742.665C672.121 739.971 673.745 737.879 675.821 736.39C677.91 734.9 680.339 734.155 683.107 734.155C685.875 734.155 688.297 734.9 690.373 736.39C692.462 737.879 694.086 739.971 695.243 742.665C696.414 745.358 697 748.511 697 752.123C697 755.704 696.414 758.834 695.243 761.513C694.086 764.191 692.462 766.276 690.373 767.765C688.297 769.255 685.875 770 683.107 770ZM683.107 765.215C685.209 765.215 686.939 764.605 688.297 763.386C689.654 762.167 690.659 760.565 691.311 758.578C691.963 756.592 692.289 754.44 692.289 752.123C692.289 749.805 691.963 747.646 691.311 745.644C690.659 743.643 689.654 742.025 688.297 740.791C686.939 739.557 685.209 738.94 683.107 738.94C681.004 738.94 679.274 739.557 677.917 740.791C676.559 742.025 675.554 743.643 674.902 745.644C674.25 747.646 673.924 749.805 673.924 752.123C673.924 754.44 674.25 756.592 674.902 758.578C675.554 760.565 676.559 762.167 677.917 763.386C679.274 764.605 681.004 765.215 683.107 765.215ZM685.183 729.911H681.27V725.036C682.667 724.945 683.652 724.727 684.225 724.381C684.81 724.035 685.103 723.501 685.103 722.779C685.103 721.966 684.684 721.372 683.845 720.995C683.007 720.619 681.989 720.431 680.791 720.431L680.951 717C683.706 717 685.788 717.542 687.199 718.625C688.623 719.709 689.335 721.153 689.335 722.959C689.335 724.494 688.902 725.615 688.037 726.322C687.172 727.03 686.221 727.474 685.183 727.654V729.911Z" fill="black"/>
<path d="M212 728.015V723.049H242.661V728.015H229.806V769.278H224.855V728.015H212Z" stroke="black" stroke-width="2" mask="url(#path-2-inside-1_2_3)"/>
<path d="M254.374 748.421V769.278H249.663V723.049H254.374V740.024H254.773C255.492 738.233 256.57 736.811 258.007 735.758C259.457 734.689 261.387 734.155 263.796 734.155C265.885 734.155 267.715 734.629 269.285 735.577C270.855 736.51 272.073 737.947 272.938 739.888C273.816 741.815 274.256 744.267 274.256 747.247V769.278H269.545V747.608C269.545 744.854 268.913 742.725 267.648 741.22C266.397 739.7 264.661 738.94 262.438 738.94C260.895 738.94 259.511 739.309 258.286 740.046C257.075 740.784 256.117 741.86 255.412 743.274C254.72 744.689 254.374 746.404 254.374 748.421Z" stroke="black" stroke-width="2" mask="url(#path-2-inside-1_2_3)"/>
<path d="M295.729 770C292.775 770 290.227 769.263 288.084 767.788C285.955 766.298 284.311 764.221 283.154 761.558C282.009 758.879 281.437 755.764 281.437 752.213C281.437 748.662 282.009 745.532 283.154 742.823C284.311 740.099 285.922 737.977 287.984 736.457C290.06 734.922 292.482 734.155 295.25 734.155C296.847 734.155 298.424 734.456 299.981 735.058C301.538 735.66 302.956 736.638 304.233 737.992C305.511 739.332 306.529 741.107 307.287 743.319C308.046 745.532 308.425 748.255 308.425 751.491V753.748H284.79V749.143H303.634C303.634 747.187 303.288 745.441 302.596 743.906C301.918 742.371 300.946 741.16 299.682 740.272C298.431 739.384 296.954 738.94 295.25 738.94C293.374 738.94 291.75 739.467 290.38 740.52C289.022 741.559 287.978 742.913 287.246 744.583C286.514 746.254 286.148 748.045 286.148 749.956V753.026C286.148 755.644 286.547 757.864 287.346 759.684C288.157 761.49 289.282 762.867 290.719 763.815C292.156 764.748 293.826 765.215 295.729 765.215C296.967 765.215 298.085 765.019 299.083 764.628C300.094 764.221 300.966 763.62 301.698 762.822C302.43 762.009 302.996 761.001 303.395 759.797L307.946 761.242C307.467 762.988 306.662 764.522 305.531 765.847C304.399 767.156 303.002 768.179 301.339 768.917C299.675 769.639 297.805 770 295.729 770Z" stroke="black" stroke-width="2" mask="url(#path-2-inside-1_2_3)"/>
<path d="M328.047 770C325.279 770 322.851 769.255 320.761 767.765C318.685 766.276 317.062 764.191 315.891 761.513C314.733 758.834 314.154 755.704 314.154 752.123C314.154 748.511 314.733 745.358 315.891 742.665C317.062 739.971 318.685 737.879 320.761 736.39C322.851 734.9 325.279 734.155 328.047 734.155C330.816 734.155 333.238 734.9 335.314 736.39C337.403 737.879 339.026 739.971 340.184 742.665C341.355 745.358 341.941 748.511 341.941 752.123C341.941 755.704 341.355 758.834 340.184 761.513C339.026 764.191 337.403 766.276 335.314 767.765C333.238 769.255 330.816 770 328.047 770ZM328.047 765.215C330.15 765.215 331.88 764.605 333.238 763.386C334.595 762.167 335.6 760.565 336.252 758.578C336.904 756.592 337.23 754.44 337.23 752.123C337.23 749.805 336.904 747.646 336.252 745.644C335.6 743.643 334.595 742.025 333.238 740.791C331.88 739.557 330.15 738.94 328.047 738.94C325.945 738.94 324.215 739.557 322.857 740.791C321.5 742.025 320.495 743.643 319.843 745.644C319.191 747.646 318.865 749.805 318.865 752.123C318.865 754.44 319.191 756.592 319.843 758.578C320.495 760.565 321.5 762.167 322.857 763.386C324.215 764.605 325.945 765.215 328.047 765.215Z" stroke="black" stroke-width="2" mask="url(#path-2-inside-1_2_3)"/>
<path d="M365.581 769.278V723.049H370.291V740.114H370.691C371.037 739.512 371.516 738.745 372.128 737.812C372.753 736.864 373.645 736.021 374.803 735.284C375.974 734.531 377.558 734.155 379.554 734.155C382.135 734.155 384.411 734.885 386.381 736.345C388.35 737.804 389.887 739.873 390.992 742.552C392.096 745.231 392.649 748.391 392.649 752.032C392.649 755.704 392.096 758.887 390.992 761.58C389.887 764.259 388.357 766.336 386.401 767.81C384.444 769.27 382.189 770 379.634 770C377.664 770 376.087 769.631 374.903 768.894C373.718 768.142 372.807 767.291 372.168 766.343C371.529 765.38 371.037 764.583 370.691 763.951H370.132V769.278H365.581ZM370.212 751.942C370.212 754.56 370.551 756.87 371.23 758.872C371.908 760.858 372.9 762.416 374.204 763.544C375.508 764.658 377.105 765.215 378.995 765.215C380.964 765.215 382.608 764.628 383.925 763.454C385.256 762.265 386.254 760.67 386.92 758.669C387.598 756.652 387.938 754.41 387.938 751.942C387.938 749.504 387.605 747.307 386.94 745.351C386.287 743.38 385.296 741.822 383.965 740.678C382.648 739.52 380.991 738.94 378.995 738.94C377.078 738.94 375.468 739.49 374.164 740.588C372.86 741.672 371.875 743.192 371.21 745.148C370.544 747.089 370.212 749.354 370.212 751.942Z" stroke="black" stroke-width="2" mask="url(#path-2-inside-1_2_3)"/>
<path d="M427.482 733.072H431.634C431.634 735.359 431.368 737.278 430.835 738.828C430.303 740.362 429.372 741.521 428.041 742.304C426.71 743.071 424.847 743.455 422.451 743.455V739.753C424.102 739.753 425.273 739.527 425.965 739.076C426.67 738.609 427.096 737.887 427.242 736.909C427.402 735.916 427.482 734.637 427.482 733.072ZM419.178 755.102V734.606H423.889V769.278H419.178V763.409H418.858C418.14 765.17 417.022 766.667 415.505 767.901C413.988 769.12 412.071 769.729 409.756 769.729C407.839 769.729 406.136 769.255 404.646 768.307C403.155 767.344 401.984 765.899 401.132 763.973C400.281 762.032 399.855 759.587 399.855 756.637V734.606H404.566V756.276C404.566 758.804 405.191 760.821 406.442 762.325C407.706 763.83 409.317 764.583 411.273 764.583C412.444 764.583 413.635 764.244 414.846 763.567C416.07 762.89 417.095 761.851 417.92 760.452C418.759 759.052 419.178 757.269 419.178 755.102Z" stroke="black" stroke-width="2" mask="url(#path-2-inside-1_2_3)"/>
<path d="M459.735 731.988H464.127C464.127 735.419 463.461 738.143 462.13 740.159C460.813 742.176 458.497 743.184 455.184 743.184V739.392C456.514 739.392 457.499 739.083 458.138 738.466C458.79 737.849 459.216 736.984 459.416 735.871C459.629 734.757 459.735 733.463 459.735 731.988ZM447.279 770C444.511 770 442.082 769.255 439.993 767.765C437.917 766.276 436.293 764.191 435.122 761.513C433.964 758.834 433.385 755.704 433.385 752.123C433.385 748.511 433.964 745.358 435.122 742.665C436.293 739.971 437.917 737.879 439.993 736.39C442.082 734.9 444.511 734.155 447.279 734.155C450.047 734.155 452.469 734.9 454.545 736.39C456.634 737.879 458.258 739.971 459.416 742.665C460.587 745.358 461.172 748.511 461.172 752.123C461.172 755.704 460.587 758.834 459.416 761.513C458.258 764.191 456.634 766.276 454.545 767.765C452.469 769.255 450.047 770 447.279 770ZM447.279 765.215C449.381 765.215 451.112 764.605 452.469 763.386C453.826 762.167 454.831 760.565 455.483 758.578C456.135 756.592 456.461 754.44 456.461 752.123C456.461 749.805 456.135 747.646 455.483 745.644C454.831 743.643 453.826 742.025 452.469 740.791C451.112 739.557 449.381 738.94 447.279 738.94C445.176 738.94 443.446 739.557 442.089 740.791C440.731 742.025 439.727 743.643 439.075 745.644C438.423 747.646 438.096 749.805 438.096 752.123C438.096 754.44 438.423 756.592 439.075 758.578C439.727 760.565 440.731 762.167 442.089 763.386C443.446 764.605 445.176 765.215 447.279 765.215ZM445.123 729.911L449.994 719.438H455.503L449.275 729.911H445.123Z" stroke="black" stroke-width="2" mask="url(#path-2-inside-1_2_3)"/>
<path d="M480.874 770C478 770 475.525 769.233 473.449 767.698C471.373 766.163 469.776 764.048 468.658 761.355C467.54 758.661 466.981 755.584 466.981 752.123C466.981 748.601 467.553 745.494 468.698 742.8C469.856 740.092 471.466 737.977 473.529 736.457C475.605 734.922 478.027 734.155 480.795 734.155C482.95 734.155 484.893 734.606 486.623 735.509C488.353 736.412 489.771 737.676 490.875 739.302C491.98 740.927 492.665 742.823 492.931 744.99H488.22C487.861 743.41 487.063 742.01 485.825 740.791C484.601 739.557 482.95 738.94 480.874 738.94C479.038 738.94 477.428 739.482 476.044 740.566C474.673 741.634 473.602 743.146 472.83 745.103C472.071 747.044 471.692 749.324 471.692 751.942C471.692 754.621 472.065 756.953 472.81 758.94C473.568 760.926 474.633 762.468 476.004 763.567C477.388 764.665 479.011 765.215 480.874 765.215C482.099 765.215 483.21 764.974 484.208 764.492C485.206 764.011 486.051 763.319 486.743 762.416C487.435 761.513 487.928 760.429 488.22 759.165H492.931C492.665 761.212 492.006 763.055 490.955 764.695C489.917 766.321 488.54 767.615 486.823 768.578C485.12 769.526 483.137 770 480.874 770Z" stroke="black" stroke-width="2" mask="url(#path-2-inside-1_2_3)"/>
<path d="M528.962 734.606V739.121H513.073V734.606H528.962ZM517.704 726.3H522.415V759.346C522.415 760.851 522.608 761.979 522.994 762.732C523.393 763.469 523.899 763.966 524.511 764.221C525.136 764.462 525.795 764.583 526.487 764.583C527.006 764.583 527.432 764.553 527.764 764.492C528.097 764.417 528.363 764.357 528.563 764.312L529.521 769.097C529.202 769.233 528.756 769.368 528.184 769.503C527.611 769.654 526.886 769.729 526.008 769.729C524.677 769.729 523.373 769.406 522.095 768.759C520.831 768.111 519.78 767.126 518.941 765.802C518.116 764.477 517.704 762.807 517.704 760.79V726.3Z" stroke="black" stroke-width="2" mask="url(#path-2-inside-1_2_3)"/>
<path d="M536.049 769.278V734.606H540.6V739.843H540.919C541.478 738.128 542.49 736.736 543.953 735.667C545.417 734.599 547.068 734.065 548.904 734.065C549.25 734.065 549.682 734.072 550.202 734.087C550.721 734.102 551.113 734.125 551.379 734.155V739.572C551.22 739.527 550.854 739.46 550.281 739.369C549.722 739.264 549.13 739.211 548.505 739.211C547.014 739.211 545.683 739.565 544.512 740.272C543.355 740.964 542.436 741.927 541.758 743.161C541.092 744.38 540.76 745.772 540.76 747.337V769.278H536.049Z" stroke="black" stroke-width="2" mask="url(#path-2-inside-1_2_3)"/>
<path d="M568.886 770C565.931 770 563.383 769.263 561.24 767.788C559.111 766.298 557.468 764.221 556.31 761.558C555.165 758.879 554.593 755.764 554.593 752.213C554.593 748.662 555.165 745.532 556.31 742.823C557.468 740.099 559.078 737.977 561.141 736.457C563.217 734.922 565.639 734.155 568.407 734.155C570.004 734.155 571.581 734.456 573.138 735.058C574.695 735.66 576.112 736.638 577.389 737.992C578.667 739.332 579.685 741.107 580.444 743.319C581.202 745.532 581.581 748.255 581.581 751.491V753.748H557.947V749.143H576.79C576.79 747.187 576.445 745.441 575.753 743.906C575.074 742.371 574.102 741.16 572.838 740.272C571.587 739.384 570.11 738.94 568.407 738.94C566.53 738.94 564.907 739.467 563.536 740.52C562.179 741.559 561.134 742.913 560.402 744.583C559.67 746.254 559.304 748.045 559.304 749.956V753.026C559.304 755.644 559.703 757.864 560.502 759.684C561.314 761.49 562.438 762.867 563.875 763.815C565.313 764.748 566.983 765.215 568.886 765.215C570.123 765.215 571.241 765.019 572.239 764.628C573.251 764.221 574.122 763.62 574.854 762.822C575.586 762.009 576.152 761.001 576.551 759.797L581.102 761.242C580.623 762.988 579.818 764.522 578.687 765.847C577.556 767.156 576.158 768.179 574.495 768.917C572.831 769.639 570.962 770 568.886 770ZM570.243 729.911H566.331V725.036C567.728 724.945 568.713 724.727 569.285 724.381C569.87 724.035 570.163 723.501 570.163 722.779C570.163 721.966 569.744 721.372 568.906 720.995C568.067 720.619 567.049 720.431 565.851 720.431L566.011 717C568.766 717 570.849 717.542 572.259 718.625C573.683 719.709 574.395 721.153 574.395 722.959C574.395 724.494 573.963 725.615 573.098 726.322C572.233 727.03 571.281 727.474 570.243 727.654V729.911Z" stroke="black" stroke-width="2" mask="url(#path-2-inside-1_2_3)"/>
<path d="M609.268 748.421V769.278H604.557V734.606H609.109V740.024H609.508C610.226 738.263 611.318 736.849 612.782 735.78C614.245 734.697 616.135 734.155 618.451 734.155C620.527 734.155 622.343 734.637 623.9 735.6C625.457 736.548 626.668 737.992 627.533 739.934C628.398 741.86 628.831 744.298 628.831 747.247V769.278H624.12V747.608C624.12 744.884 623.494 742.763 622.243 741.243C620.992 739.708 619.276 738.94 617.093 738.94C615.589 738.94 614.245 739.309 613.061 740.046C611.89 740.784 610.965 741.86 610.286 743.274C609.608 744.689 609.268 746.404 609.268 748.421Z" stroke="black" stroke-width="2" mask="url(#path-2-inside-1_2_3)"/>
<path d="M642.15 748.421V769.278H637.439V723.049H642.15V740.024H642.549C643.268 738.233 644.346 736.811 645.783 735.758C647.234 734.689 649.163 734.155 651.572 734.155C653.661 734.155 655.491 734.629 657.062 735.577C658.632 736.51 659.85 737.947 660.715 739.888C661.593 741.815 662.032 744.267 662.032 747.247V769.278H657.321V747.608C657.321 744.854 656.689 742.725 655.425 741.22C654.174 739.7 652.437 738.94 650.215 738.94C648.671 738.94 647.287 739.309 646.063 740.046C644.852 740.784 643.894 741.86 643.188 743.274C642.496 744.689 642.15 746.404 642.15 748.421Z" stroke="black" stroke-width="2" mask="url(#path-2-inside-1_2_3)"/>
<path d="M683.107 770C680.339 770 677.91 769.255 675.821 767.765C673.745 766.276 672.121 764.191 670.95 761.513C669.792 758.834 669.213 755.704 669.213 752.123C669.213 748.511 669.792 745.358 670.95 742.665C672.121 739.971 673.745 737.879 675.821 736.39C677.91 734.9 680.339 734.155 683.107 734.155C685.875 734.155 688.297 734.9 690.373 736.39C692.462 737.879 694.086 739.971 695.243 742.665C696.414 745.358 697 748.511 697 752.123C697 755.704 696.414 758.834 695.243 761.513C694.086 764.191 692.462 766.276 690.373 767.765C688.297 769.255 685.875 770 683.107 770ZM683.107 765.215C685.209 765.215 686.939 764.605 688.297 763.386C689.654 762.167 690.659 760.565 691.311 758.578C691.963 756.592 692.289 754.44 692.289 752.123C692.289 749.805 691.963 747.646 691.311 745.644C690.659 743.643 689.654 742.025 688.297 740.791C686.939 739.557 685.209 738.94 683.107 738.94C681.004 738.94 679.274 739.557 677.917 740.791C676.559 742.025 675.554 743.643 674.902 745.644C674.25 747.646 673.924 749.805 673.924 752.123C673.924 754.44 674.25 756.592 674.902 758.578C675.554 760.565 676.559 762.167 677.917 763.386C679.274 764.605 681.004 765.215 683.107 765.215ZM685.183 729.911H681.27V725.036C682.667 724.945 683.652 724.727 684.225 724.381C684.81 724.035 685.103 723.501 685.103 722.779C685.103 721.966 684.684 721.372 683.845 720.995C683.007 720.619 681.989 720.431 680.791 720.431L680.951 717C683.706 717 685.788 717.542 687.199 718.625C688.623 719.709 689.335 721.153 689.335 722.959C689.335 724.494 688.902 725.615 688.037 726.322C687.172 727.03 686.221 727.474 685.183 727.654V729.911Z" stroke="black" stroke-width="2" mask="url(#path-2-inside-1_2_3)"/>
</g>
<g filter="url(#filter3_d_2_3)">
<ellipse cx="751" cy="263" rx="36" ry="30" fill="#0FA60C"/>
</g>
<g filter="url(#filter4_d_2_3)">
<ellipse cx="809.5" cy="149" rx="57.5" ry="55" fill="#FC0404"/>
</g>
<g filter="url(#filter5_d_2_3)">
<ellipse cx="920" cy="257.5" rx="53" ry="53.5" fill="#F3F800"/>
</g>
</g>
<defs>
<filter id="filter0_d_2_3" x="-4" y="0" width="1100" height="887" filterUnits="userSpaceOnUse" color-interpolation-filters="sRGB">
<feFlood flood-opacity="0" result="BackgroundImageFix"/>
<feColorMatrix in="SourceAlpha" type="matrix" values="0 0 0 0 0 0 0 0 0 0 0 0 0 0 0 0 0 0 127 0" result="hardAlpha"/>
<feOffset dy="4"/>
<feGaussianBlur stdDeviation="2"/>
<feComposite in2="hardAlpha" operator="out"/>
<feColorMatrix type="matrix" values="0 0 0 0 0 0 0 0 0 0 0 0 0 0 0 0 0 0 0.25 0"/>
<feBlend mode="normal" in2="BackgroundImageFix" result="effect1_dropShadow_2_3"/>
<feBlend mode="normal" in="SourceGraphic" in2="effect1_dropShadow_2_3" result="shape"/>
</filter>
<filter id="filter1_d_2_3" x="107" y="397" width="649" height="277" filterUnits="userSpaceOnUse" color-interpolation-filters="sRGB">
<feFlood flood-opacity="0" result="BackgroundImageFix"/>
<feColorMatrix in="SourceAlpha" type="matrix" values="0 0 0 0 0 0 0 0 0 0 0 0 0 0 0 0 0 0 127 0" result="hardAlpha"/>
<feOffset dy="4"/>
<feGaussianBlur stdDeviation="2"/>
<feComposite in2="hardAlpha" operator="out"/>
<feColorMatrix type="matrix" values="0 0 0 0 0 0 0 0 0 0 0 0 0 0 0 0 0 0 0.25 0"/>
<feBlend mode="normal" in2="BackgroundImageFix" result="effect1_dropShadow_2_3"/>
<feBlend mode="normal" in="SourceGraphic" in2="effect1_dropShadow_2_3" result="shape"/>
</filter>
<filter id="filter2_d_2_3" x="208" y="717" width="493" height="61" filterUnits="userSpaceOnUse" color-interpolation-filters="sRGB">
<feFlood flood-opacity="0" result="BackgroundImageFix"/>
<feColorMatrix in="SourceAlpha" type="matrix" values="0 0 0 0 0 0 0 0 0 0 0 0 0 0 0 0 0 0 127 0" result="hardAlpha"/>
<feOffset dy="4"/>
<feGaussianBlur stdDeviation="2"/>
<feComposite in2="hardAlpha" operator="out"/>
<feColorMatrix type="matrix" values="0 0 0 0 0 0 0 0 0 0 0 0 0 0 0 0 0 0 0.25 0"/>
<feBlend mode="normal" in2="BackgroundImageFix" result="effect1_dropShadow_2_3"/>
<feBlend mode="normal" in="SourceGraphic" in2="effect1_dropShadow_2_3" result="shape"/>
</filter>
<filter id="filter3_d_2_3" x="711" y="233" width="80" height="68" filterUnits="userSpaceOnUse" color-interpolation-filters="sRGB">
<feFlood flood-opacity="0" result="BackgroundImageFix"/>
<feColorMatrix in="SourceAlpha" type="matrix" values="0 0 0 0 0 0 0 0 0 0 0 0 0 0 0 0 0 0 127 0" result="hardAlpha"/>
<feOffset dy="4"/>
<feGaussianBlur stdDeviation="2"/>
<feComposite in2="hardAlpha" operator="out"/>
<feColorMatrix type="matrix" values="0 0 0 0 0 0 0 0 0 0 0 0 0 0 0 0 0 0 0.25 0"/>
<feBlend mode="normal" in2="BackgroundImageFix" result="effect1_dropShadow_2_3"/>
<feBlend mode="normal" in="SourceGraphic" in2="effect1_dropShadow_2_3" result="shape"/>
</filter>
<filter id="filter4_d_2_3" x="748" y="94" width="123" height="118" filterUnits="userSpaceOnUse" color-interpolation-filters="sRGB">
<feFlood flood-opacity="0" result="BackgroundImageFix"/>
<feColorMatrix in="SourceAlpha" type="matrix" values="0 0 0 0 0 0 0 0 0 0 0 0 0 0 0 0 0 0 127 0" result="hardAlpha"/>
<feOffset dy="4"/>
<feGaussianBlur stdDeviation="2"/>
<feComposite in2="hardAlpha" operator="out"/>
<feColorMatrix type="matrix" values="0 0 0 0 0 0 0 0 0 0 0 0 0 0 0 0 0 0 0.25 0"/>
<feBlend mode="normal" in2="BackgroundImageFix" result="effect1_dropShadow_2_3"/>
<feBlend mode="normal" in="SourceGraphic" in2="effect1_dropShadow_2_3" result="shape"/>
</filter>
<filter id="filter5_d_2_3" x="863" y="204" width="114" height="115" filterUnits="userSpaceOnUse" color-interpolation-filters="sRGB">
<feFlood flood-opacity="0" result="BackgroundImageFix"/>
<feColorMatrix in="SourceAlpha" type="matrix" values="0 0 0 0 0 0 0 0 0 0 0 0 0 0 0 0 0 0 127 0" result="hardAlpha"/>
<feOffset dy="4"/>
<feGaussianBlur stdDeviation="2"/>
<feComposite in2="hardAlpha" operator="out"/>
<feColorMatrix type="matrix" values="0 0 0 0 0 0 0 0 0 0 0 0 0 0 0 0 0 0 0.25 0"/>
<feBlend mode="normal" in2="BackgroundImageFix" result="effect1_dropShadow_2_3"/>
<feBlend mode="normal" in="SourceGraphic" in2="effect1_dropShadow_2_3" result="shape"/>
</filter>
</defs>
</svg>
